<svg width="13" height="22" viewBox="0 0 13 22" fill="none" xmlns="http://www.w3.org/2000/svg">
<path d="M8.80998 1.33984H11.25V4.03984H9.67998C9.17998 4.03984 8.45998 4.09984 7.99998 4.61984C7.61998 5.04984 7.56998 5.61984 7.56998 6.11984V8.02984C7.56998 8.41984 7.88998 8.73984 8.27998 8.73984H11.13V11.6798H8.27998C7.88998 11.6798 7.56998 11.9998 7.56998 12.3898V20.6198H4.51998V12.3898C4.51998 11.9998 4.19998 11.6798 3.80998 11.6798H1.41998V8.73984H3.80998C4.19998 8.73984 4.51998 8.41984 4.51998 8.02984V5.76984C4.51998 3.04984 6.15998 1.34984 8.80998 1.34984M8.80998 0.349844C5.59998 0.349844 3.51998 2.47984 3.51998 5.76984V7.73984H1.41998C0.869983 7.73984 0.419983 8.18984 0.419983 8.73984V11.6798C0.419983 12.2298 0.869983 12.6798 1.41998 12.6798H3.51998V20.6198C3.51998 21.1698 3.96998 21.6198 4.51998 21.6198H7.56998C8.11998 21.6198 8.56998 21.1698 8.56998 20.6198V12.6798H11.12C11.67 12.6798 12.12 12.2298 12.12 11.6798V8.73984C12.12 8.46984 12.02 8.21984 11.83 8.02984C11.64 7.83984 11.39 7.73984 11.12 7.73984H8.56998V6.11984C8.56998 5.67984 8.61998 5.42984 8.74998 5.28984C8.88998 5.12984 9.18998 5.04984 9.67998 5.04984H11.25C11.8 5.04984 12.25 4.59984 12.25 4.04984V1.33984C12.25 0.789844 11.8 0.339844 11.25 0.339844H8.80998V0.349844Z" fill="#3C3C3B"/>
</svg>
