<svg width="23" height="22" viewBox="0 0 23 22" fill="none" xmlns="http://www.w3.org/2000/svg">
<path d="M16.45 1.21484C19.04 1.21484 21.14 3.32484 21.14 5.90484V16.0548C21.14 18.6448 19.03 20.7448 16.45 20.7448H6.29999C3.70999 20.7448 1.60999 18.6348 1.60999 16.0548V5.90484C1.60999 3.31484 3.71999 1.21484 6.29999 1.21484H16.45ZM16.45 0.214844H6.29999C3.15999 0.214844 0.609985 2.76484 0.609985 5.90484V16.0548C0.609985 19.1948 3.15999 21.7448 6.29999 21.7448H16.45C19.59 21.7448 22.14 19.1948 22.14 16.0548V5.90484C22.14 2.76484 19.59 0.214844 16.45 0.214844Z" fill="#3C3C3B"/>
<path d="M11.37 6.23486C13.99 6.23486 16.13 8.36486 16.13 10.9949C16.13 13.6249 14 15.7549 11.37 15.7549C8.73998 15.7549 6.60999 13.6249 6.60999 10.9949C6.60999 8.36486 8.73998 6.23486 11.37 6.23486ZM11.37 5.23486C8.19998 5.23486 5.60999 7.81486 5.60999 10.9949C5.60999 14.1749 8.18998 16.7549 11.37 16.7549C14.55 16.7549 17.13 14.1749 17.13 10.9949C17.13 7.81486 14.55 5.23486 11.37 5.23486Z" fill="#3C3C3B"/>
<path d="M17.57 3.76465C18.01 3.76465 18.37 4.12465 18.37 4.56465C18.37 5.00465 18.01 5.36465 17.57 5.36465C17.13 5.36465 16.77 5.00465 16.77 4.56465C16.77 4.12465 17.13 3.76465 17.57 3.76465ZM17.57 2.76465C16.58 2.76465 15.77 3.57465 15.77 4.56465C15.77 5.55465 16.58 6.36465 17.57 6.36465C18.56 6.36465 19.37 5.55465 19.37 4.56465C19.37 3.57465 18.56 2.76465 17.57 2.76465Z" fill="#3C3C3B"/>
</svg>
