<svg width="22" height="22" viewBox="0 0 22 22" fill="none" xmlns="http://www.w3.org/2000/svg">
<path d="M4.99001 7.99512V20.8651H1.09V7.99512H4.99001ZM4.99001 6.99512H1.09C0.539996 6.99512 0.0899963 7.44512 0.0899963 7.99512V20.8651C0.0899963 21.4151 0.539996 21.8651 1.09 21.8651H4.99001C5.54001 21.8651 5.99001 21.4151 5.99001 20.8651V7.99512C5.99001 7.44512 5.54001 6.99512 4.99001 6.99512Z" fill="#3C3C3B"/>
<path d="M3.04001 1.09521C4.12001 1.09521 4.99001 1.96521 4.99001 3.04521C4.99001 4.12522 4.12001 4.99521 3.04001 4.99521C1.96001 4.99521 1.09 4.12522 1.09 3.04521C1.09 1.96521 1.96001 1.09521 3.04001 1.09521ZM3.04001 0.0952148C1.41001 0.0952148 0.0899963 1.41521 0.0899963 3.04521C0.0899963 4.67521 1.41001 5.99521 3.04001 5.99521C4.67001 5.99521 5.99001 4.67521 5.99001 3.04521C5.99001 1.41521 4.66001 0.0952148 3.04001 0.0952148Z" fill="#3C3C3B"/>
<path d="M11.59 7.99535V9.39535C11.59 9.65535 11.8 9.85535 12.05 9.85535H12.11C12.28 9.85535 12.44 9.75535 12.52 9.60535C13.05 8.59535 14.42 7.99535 16.17 7.99535C20.08 7.99535 20.85 10.1054 20.85 13.7454V20.8654H17.64V14.6054C17.64 13.4754 17.64 10.4754 14.8 10.4754C11.76 10.4754 11.76 13.3954 11.76 14.4854V20.8554H8.66998V7.98535H11.59M11.59 6.98535H8.66998C8.11998 6.98535 7.66998 7.43535 7.66998 7.98535V20.8554C7.66998 21.4054 8.11998 21.8554 8.66998 21.8554H11.76C12.31 21.8554 12.76 21.4054 12.76 20.8554V14.4854C12.76 12.2854 13.31 11.4754 14.8 11.4754C16.12 11.4754 16.64 12.3554 16.64 14.6054V20.8654C16.64 21.1354 16.74 21.3854 16.93 21.5754C17.12 21.7654 17.37 21.8654 17.64 21.8654H20.85C21.4 21.8654 21.85 21.4154 21.85 20.8654V13.7454C21.85 10.2354 21.16 6.99535 16.17 6.99535C14.71 6.99535 13.46 7.37535 12.59 8.03535V7.99535C12.59 7.44535 12.14 6.99535 11.59 6.99535V6.98535Z" fill="#3C3C3B"/>
</svg>
