<svg width="23" height="22" viewBox="0 0 23 22" fill="none" xmlns="http://www.w3.org/2000/svg">
<path d="M4.15482 4.12475C4.24482 4.12475 4.34482 4.16475 4.41481 4.23475L7.75482 7.57475C7.89482 7.71475 7.89482 7.94475 7.75482 8.08475L6.33482 9.50475C5.78482 10.0547 5.67482 10.9247 6.08482 11.5647C6.32482 11.9447 6.56482 12.3347 6.85482 12.6747C7.48482 13.4047 8.82482 14.7947 9.53482 15.4447C10.0048 15.8747 10.5548 16.2247 11.0848 16.5747C11.3448 16.7447 11.6448 16.8247 11.9448 16.8247C12.3748 16.8247 12.8148 16.6547 13.1448 16.3247L14.5648 14.9047C14.6348 14.8347 14.7248 14.7947 14.8248 14.7947C14.9248 14.7947 15.0148 14.8347 15.0848 14.9047L18.4248 18.2447C18.5648 18.3847 18.5648 18.6147 18.4248 18.7547L17.5648 19.6147C16.7648 20.4147 15.7048 20.8347 14.6248 20.8347C14.0148 20.8347 13.3948 20.6947 12.8248 20.4147C7.03482 17.5747 3.88482 13.0747 2.25482 9.79475C1.47482 8.22475 1.80481 6.32475 3.05481 5.07475L3.90482 4.22475C3.97482 4.15475 4.06482 4.11475 4.16481 4.11475M4.16481 3.11475C3.80481 3.11475 3.45482 3.25475 3.20482 3.51475L2.36482 4.35475C0.80482 5.91475 0.404814 8.27475 1.37481 10.2247C3.06481 13.6447 6.35482 18.3347 12.3948 21.3047C13.0848 21.6447 13.8648 21.8247 14.6348 21.8247C16.0048 21.8247 17.3048 21.2847 18.2748 20.3147L19.1348 19.4547C19.3948 19.1947 19.5348 18.8547 19.5348 18.4947C19.5348 18.1347 19.3948 17.7847 19.1348 17.5347L15.7948 14.1947C15.5348 13.9347 15.1948 13.7947 14.8348 13.7947C14.4748 13.7947 14.1248 13.9347 13.8748 14.1947L12.4548 15.6147C12.3248 15.7447 12.1448 15.8147 11.9648 15.8147C11.8448 15.8147 11.7348 15.7847 11.6448 15.7247C11.1448 15.4047 10.6348 15.0847 10.2248 14.7047C9.54482 14.0747 8.23482 12.7247 7.63482 12.0147C7.41482 11.7647 7.22482 11.4547 7.01482 11.1347L6.94481 11.0247C6.78481 10.7847 6.83481 10.4247 7.05481 10.2047L8.47482 8.78475C8.73482 8.52475 8.87481 8.18475 8.87481 7.82475C8.87481 7.46475 8.73482 7.11475 8.47482 6.85475L5.13482 3.51475C4.87482 3.25475 4.53482 3.11475 4.17482 3.11475H4.16481Z" fill="#3C3C3B"/>
<path d="M21.9248 10.0048C21.6648 10.0048 21.4448 9.79477 21.4248 9.53477C20.9348 1.13477 13.2348 1.15477 12.8848 1.13477C12.6148 1.13477 12.3848 0.914766 12.3848 0.644766C12.3848 0.364766 12.6048 0.144766 12.8748 0.134766C12.9648 0.154766 21.8748 0.0947647 22.4248 9.47476C22.4448 9.75476 22.2348 9.98477 21.9548 10.0048C21.9448 10.0048 21.9348 10.0048 21.9248 10.0048Z" fill="#3C3C3B"/>
<path d="M18.9648 10.5449C18.7048 10.5449 18.4848 10.3349 18.4648 10.0749C18.1148 4.06494 12.5848 4.05494 12.3548 4.06494C12.0848 4.03494 11.8548 3.84494 11.8448 3.57494C11.8448 3.29494 12.0648 3.07494 12.3348 3.06494C12.4048 3.06494 19.0448 3.04494 19.4548 10.0149C19.4748 10.2949 19.2648 10.5249 18.9848 10.5449C18.9748 10.5449 18.9648 10.5449 18.9548 10.5449H18.9648Z" fill="#3C3C3B"/>
<path d="M16.2348 10.9046C15.9748 10.9046 15.7548 10.6946 15.7348 10.4346C15.5248 6.77465 12.1648 6.76465 12.0248 6.76465C11.7448 6.76465 11.5248 6.54465 11.5148 6.27465C11.5148 5.99465 11.7348 5.77465 12.0048 5.76465C12.0848 5.78465 16.4648 5.74465 16.7248 10.3746C16.7448 10.6546 16.5348 10.8846 16.2548 10.9046C16.2448 10.9046 16.2348 10.9046 16.2248 10.9046H16.2348Z" fill="#3C3C3B"/>
</svg>
