<svg width="20" height="23" viewBox="0 0 20 23" fill="none" xmlns="http://www.w3.org/2000/svg">
<path d="M13.18 1.99998C13.4 4.77998 15.63 7.01998 18.42 7.22998V9.69998C17.48 9.64998 16.56 9.43998 15.69 9.06998C15.05 8.79998 14.45 8.43998 13.89 8.01998C13.81 7.95998 13.71 7.91998 13.61 7.91998C13.54 7.91998 13.47 7.93998 13.41 7.96998C13.25 8.03998 13.15 8.19998 13.15 8.37998V16.01C13.15 17.6 12.52 19.1 11.39 20.23C10.47 21.15 9.31002 21.74 8.04002 21.92C7.74002 21.96 7.44001 21.99 7.14001 21.99C5.54001 21.99 4.03002 21.36 2.90002 20.23C1.76002 19.1 1.14001 17.59 1.14001 15.99C1.14001 14.39 1.77002 12.88 2.90002 11.75C4.03002 10.61 5.54001 9.98998 7.14001 9.98998C7.31001 9.98998 7.49002 9.98998 7.65002 10.01V12.49C7.48002 12.47 7.31002 12.45 7.13002 12.45C5.17002 12.45 3.58002 14.04 3.58002 16C3.58002 17.96 5.17002 19.55 7.13002 19.55C7.51002 19.55 7.88002 19.49 8.25002 19.37C9.70002 18.89 10.67 17.54 10.68 16.02V1.99998H13.17M13.17 0.99998H10.68C10.13 0.99998 9.68002 1.44998 9.68002 1.99998V16C9.68002 17.09 8.97001 18.06 7.94001 18.4C7.67001 18.49 7.41001 18.53 7.14001 18.53C5.74001 18.53 4.59002 17.39 4.59002 15.98C4.59002 14.57 5.73001 13.43 7.14001 13.43C7.27001 13.43 7.39002 13.43 7.51002 13.46C7.56002 13.46 7.60002 13.47 7.65002 13.47C7.89002 13.47 8.12002 13.38 8.31002 13.23C8.53002 13.04 8.65002 12.76 8.65002 12.47V9.98998C8.65002 9.47998 8.27002 9.04998 7.76002 8.99998C7.58002 8.97998 7.37001 8.96998 7.14001 8.96998C5.26001 8.96998 3.51001 9.69998 2.19001 11.03C0.870014 12.35 0.140015 14.11 0.140015 15.98C0.140015 17.85 0.870016 19.61 2.20002 20.93C3.52002 22.25 5.28002 22.98 7.15002 22.98C7.49002 22.98 7.84002 22.95 8.20002 22.9C9.69002 22.68 11.04 22 12.11 20.92C13.43 19.6 14.16 17.85 14.16 16V9.39998C14.53 9.61998 14.91 9.81998 15.3 9.97998C16.26 10.39 17.29 10.63 18.36 10.69C18.38 10.69 18.4 10.69 18.42 10.69C18.67 10.69 18.92 10.59 19.11 10.42C19.31 10.23 19.42 9.96998 19.42 9.68998V7.21998C19.42 6.69998 19.02 6.25998 18.5 6.21998C16.22 6.03998 14.36 4.18998 14.18 1.89998C14.14 1.37998 13.7 0.97998 13.18 0.97998L13.17 0.99998Z" fill="#3C3C3B"/>
</svg>
