<svg width="17" height="18" viewBox="0 0 17 18" fill="none" xmlns="http://www.w3.org/2000/svg">
<path d="M0.259995 17.0601C0.629995 16.6201 1.01 16.1701 1.38 15.7401C3.03 13.8201 4.66999 11.9101 6.31999 10.0001C6.34999 9.96012 6.38999 9.92012 6.42999 9.87012C4.36999 6.88012 2.32 3.89012 0.25 0.880117C0.31 0.880117 0.349999 0.880117 0.389999 0.880117C1.87 0.880117 3.35 0.880117 4.84 0.880117C4.95 0.880117 5 0.920117 5.05 1.00012C6.35 2.90012 7.65 4.79012 8.95 6.68012C8.98 6.73012 9.02 6.77012 9.06 6.83012C9.33 6.52012 9.58999 6.22012 9.84999 5.91012C11.25 4.28012 12.65 2.66012 14.05 1.03012C14.15 0.910117 14.25 0.870117 14.4 0.870117C14.78 0.880117 15.17 0.870117 15.59 0.870117C13.61 3.17012 11.65 5.45012 9.69 7.73012C9.72 7.78012 9.75 7.83012 9.78 7.87012C11.85 10.8901 13.93 13.9101 16 16.9301C16.03 16.9801 16.06 17.0301 16.09 17.0801H11.37C11.37 17.0801 11.33 17.0201 11.31 16.9901C9.92 14.9601 8.52001 12.9301 7.13 10.9101C7.11 10.8801 7.08 10.8501 7.05 10.8101C7 10.8701 6.96 10.9101 6.92 10.9601C5.8 12.2701 4.67 13.5701 3.55 14.8801C2.92 15.6201 2.29 16.3501 1.66 17.0901H0.269997L0.259995 17.0601ZM2.15 1.91012C2.2 1.98012 2.21999 2.03012 2.25999 2.08012C2.49999 2.43012 2.75001 2.78012 2.99001 3.13012C5.97001 7.40012 8.96 11.6601 11.94 15.9301C12.01 16.0301 12.08 16.0601 12.2 16.0601C12.8 16.0601 13.39 16.0601 13.99 16.0601C14.04 16.0601 14.1 16.0601 14.19 16.0601C14 15.7801 13.82 15.5401 13.65 15.2901C10.57 10.8801 7.47999 6.47012 4.39999 2.06012C4.32999 1.96012 4.27 1.91012 4.14 1.91012C3.61 1.91012 3.09 1.91012 2.56 1.91012C2.44 1.91012 2.31 1.91012 2.16 1.91012H2.15Z" fill="#3C3C3B"/>
</svg>
