<svg width="30" height="22" viewBox="0 0 30 22" fill="none" xmlns="http://www.w3.org/2000/svg">
<path d="M12.42 7.37012C12.47 7.37012 12.52 7.38012 12.57 7.41012L18.61 10.5501C18.72 10.6101 18.79 10.7201 18.79 10.8401C18.79 10.9601 18.72 11.0801 18.61 11.1301L12.57 14.2901C12.57 14.2901 12.47 14.3301 12.42 14.3301C12.36 14.3301 12.3 14.3101 12.25 14.2801C12.15 14.2201 12.09 14.1101 12.09 14.0001V7.70012C12.09 7.58012 12.15 7.48012 12.25 7.42012C12.3 7.39012 12.36 7.37012 12.42 7.37012ZM12.42 6.37012C12.18 6.37012 11.94 6.44012 11.73 6.56012C11.33 6.80012 11.09 7.24012 11.09 7.70012V14.0001C11.09 14.4601 11.34 14.9001 11.73 15.1401C11.94 15.2701 12.18 15.3301 12.42 15.3301C12.63 15.3301 12.85 15.2801 13.04 15.1801L19.08 12.0201C19.52 11.7901 19.8 11.3401 19.79 10.8401C19.79 10.3401 19.51 9.89012 19.07 9.66012L13.03 6.52012C12.84 6.42012 12.63 6.37012 12.42 6.37012Z" fill="#F70025"/>
<path d="M21.46 1.42994C24.93 1.42994 26.72 1.86994 27.63 2.95994C28.54 4.04994 28.61 5.84994 28.61 8.47994V13.4699C28.61 16.4499 28.17 18.1499 27.13 19.1399C26.11 20.1099 24.47 20.5099 21.46 20.5099H8.15C2.03 20.5099 1 18.3399 1 13.4699V8.47994C1 5.97994 1 4.17994 1.88 3.05994C2.79 1.90994 4.6 1.43994 8.15 1.43994H21.46M21.46 0.439941H8.15C4.26 0.439941 2.22 1.01994 1.1 2.44994C0 3.83994 0 5.78994 0 8.48994V13.4799C0 18.6999 1.3 21.5199 8.15 21.5199H21.46C24.75 21.5199 26.6 21.0399 27.82 19.8699C29.08 18.6699 29.61 16.7499 29.61 13.4699V8.47994C29.61 5.62994 29.53 3.65994 28.39 2.31994C27.25 0.959941 25.31 0.439941 21.46 0.439941Z" fill="#F70025"/>
</svg>
